<?xml version="1.0" encoding="utf-8"?>
<!-- Generator: Adobe Illustrator 16.0.0, SVG Export Plug-In . SVG Version: 6.00 Build 0)  -->
<!DOCTYPE svg PUBLIC "-//W3C//DTD SVG 1.1//EN" "http://www.w3.org/Graphics/SVG/1.1/DTD/svg11.dtd">
<svg version="1.1" xmlns="http://www.w3.org/2000/svg" xmlns:xlink="http://www.w3.org/1999/xlink" x="0px" y="0px" width="260px"
	 height="320px" viewBox="0 0 260 320" enable-background="new 0 0 260 320" xml:space="preserve">
<g id="Layer_1">
	<g>
		<g>
			<path fill="#339933" d="M230.4,126.279c0,55.223-44.77,99.994-99.993,99.994c-55.222,0-99.994-44.771-99.994-99.994
				c0-55.23,44.772-99.994,99.994-99.994C185.631,26.285,230.4,71.049,230.4,126.279z"/>
			<path fill="#B1DAAE" d="M80.527,166.811c0,1.49-0.364,2.688-1.842,2.721v0.025c-0.801,0.066,0.188,0.098-0.449,0.098
				c-5.013,0-8.562-1.1-10.635-3.307c-2.073-2.199-3.115-5.938-3.115-11.211v-17.953c0-2.838-0.417-4.955-1.243-6.348
				c-0.826-1.375-2.266-2.363-4.313-2.975c-1.035-0.41-1.773-1.414-1.773-2.598c0-1.166,0.713-2.168,1.726-2.586v-0.006
				c3.736-0.988,5.604-3.932,5.604-8.814V94.699c0-4.752,1.068-8.189,3.21-10.293c2.142-2.109,5.653-3.164,10.54-3.164h0.449l0,0
				c1.528,0.014,1.938,1.25,1.938,2.785c0,1.537-0.41,1.922-1.938,1.936v0.031c-3.673,0.066-6.15,0.684-7.426,1.869
				c-1.278,1.178-1.916,3.463-1.916,6.848v19.529c0,2.201-0.287,4.232-0.863,6.082c-0.667,2.076-2.379,3.801-5.123,5.176
				c2.204,1.178,3.753,2.615,4.645,4.309s1.342,4.09,1.342,7.18v18.816c0,3.639,0.604,6.059,1.822,7.258
				c1.21,1.197,3.717,1.809,7.52,1.842v0.039C80.163,164.98,80.527,165.326,80.527,166.811z"/>
			<path fill="#B1DAAE" d="M182.136,164.941v-0.039c3.802-0.033,6.305-0.645,7.519-1.842c1.211-1.199,1.819-3.619,1.819-7.258
				v-18.816c0-3.09,0.445-5.486,1.342-7.18c0.896-1.693,2.444-3.125,4.644-4.309c-2.746-1.375-4.452-3.1-5.122-5.176
				c-0.576-1.85-0.863-3.881-0.863-6.082V94.711c0-3.385-0.641-5.67-1.916-6.848c-1.277-1.186-3.75-1.803-7.422-1.869v-0.031
				c-1.533-0.014-2.773-0.398-2.773-1.936c0-1.535,1.24-2.771,2.773-2.785l0,0h0.449c4.882,0,8.396,1.055,10.536,3.164
				c2.139,2.104,3.21,5.541,3.21,10.293v19.158c0,4.883,1.867,7.826,5.602,8.814v0.006c1.016,0.424,1.731,1.42,1.731,2.586
				c0,1.184-0.742,2.188-1.778,2.598c-2.046,0.611-3.485,1.6-4.312,2.975c-0.83,1.393-1.242,3.51-1.242,6.348v17.953
				c0,5.273-1.038,9.012-3.116,11.211c-2.076,2.207-5.617,3.307-10.63,3.307c-0.638,0,0.344-0.031-0.449-0.098v-0.02
				c-1.478-0.039-2.673-1.236-2.673-2.727C179.463,165.326,180.658,164.98,182.136,164.941z"/>
			<path fill="#FFFFFF" d="M116.865,116.904c2.908,0,5.388-1.016,7.442-3.047c2.057-2.031,3.081-4.467,3.081-7.316
				c0-2.84-1.03-5.262-3.088-7.279c-2.064-2.018-4.538-3.025-7.436-3.025c-2.896,0-5.363,1.002-7.415,3.012
				c-2.044,2.014-3.068,4.447-3.068,7.293c0,2.85,1.024,5.285,3.068,7.316C111.502,115.889,113.969,116.904,116.865,116.904z
				 M112.634,102.303c1.169-1.172,2.578-1.766,4.231-1.766c1.67,0,3.08,0.588,4.238,1.758c1.159,1.174,1.739,2.584,1.739,4.246
				c0,1.686-0.58,3.111-1.739,4.283c-1.158,1.172-2.568,1.758-4.238,1.758c-1.653,0-3.062-0.586-4.231-1.758
				c-1.161-1.172-1.743-2.586-1.743-4.246C110.891,104.906,111.473,103.48,112.634,102.303z M167.55,100.811
				c2.867,0,4.735,1.27,5.394,3.621h-10.692C163.096,102.08,164.937,100.811,167.55,100.811z M174.792,137.541
				c-1.894-1.973-4.219-2.955-6.979-2.955c-1.965,0-3.694,0.527-5.188,1.588c-0.371,0.279-0.684,0.535-0.94,0.75v-7.031l0,0
				c0-1.27-1.026-2.291-2.288-2.291c-1.268,0-2.293,1.021-2.293,2.291v23.227l0,0c0.007,1.186,0.964,2.143,2.148,2.143
				c1.182,0,2.139-0.957,2.143-2.143h0.022v-0.625c0.944,1.021,2.001,1.746,3.181,2.168c1.074,0.396,2.171,0.592,3.294,0.592
				c2.747,0,5.059-1,6.927-3.008c1.872-2.004,2.806-4.465,2.806-7.395C177.624,141.955,176.68,139.52,174.792,137.541z
				 M171.179,148.998c-1.08,1.107-2.422,1.66-4.036,1.66c-1.595,0-2.937-0.533-4.023-1.607c-1.084-1.074-1.627-2.408-1.627-4.004
				c0-1.738,0.527-3.15,1.572-4.244c1.046-1.094,2.405-1.641,4.078-1.641c1.599,0,2.939,0.553,4.026,1.646
				c1.085,1.1,1.628,2.461,1.628,4.082C172.797,146.523,172.259,147.898,171.179,148.998z M148.658,136.943v16.176h-0.003
				c-0.007,1.186-0.984,2.143-2.192,2.143c-1.207,0-2.187-0.965-2.187-2.148c0-0.078,0.017-0.15,0.022-0.223V152
				c-0.403,0.527-0.723,0.91-0.957,1.172c-1.275,1.387-3.107,2.09-5.49,2.09c-1.579,0-3.009-0.338-4.294-1.008
				c-1.282-0.672-2.224-1.57-2.825-2.689c-0.531-1.004-0.855-2.221-0.974-3.666c-0.042-0.494-0.062-1.777-0.062-3.828v-7.121
				c0-0.006,0-0.006,0-0.006c0-1.264,1.049-2.293,2.337-2.293c1.289,0,2.338,1.029,2.338,2.293c0,0.129-0.02,0.252-0.039,0.377v6.75
				c0,1.336,0.013,2.148,0.039,2.436c0,0.93,0.176,1.764,0.526,2.506c0.601,1.289,1.85,1.934,3.755,1.934
				c3.557,0,5.334-2.291,5.334-6.875v-7.127l0,0c0-1.264,1.046-2.293,2.335-2.293C147.613,134.65,148.658,135.68,148.658,136.943z
				 M149.969,89.496c-1.242,0-2.245,1.016-2.245,2.273l0,0v6.803c-1.087-0.938-2.158-1.568-3.217-1.922
				c-0.882-0.279-1.829-0.414-2.841-0.414c-2.751,0-5.052,0.982-6.907,2.947c-1.854,1.967-2.783,4.408-2.783,7.318
				c0,2.922,0.925,5.389,2.773,7.395c1.849,2.004,4.114,3.008,6.803,3.008c2.232,0,4.081-0.625,5.547-1.875
				c0.342-0.293,0.625-0.586,0.853-0.879v0.455h0.02l0,0c0,1.186,0.951,2.148,2.119,2.148s2.118-0.963,2.118-2.148l0,0l0,0V91.77
				l0,0C152.208,90.512,151.206,89.496,149.969,89.496z M146.284,110.668c-1.06,1.094-2.389,1.641-3.99,1.641
				c-1.557,0-2.867-0.547-3.938-1.646c-1.074-1.102-1.611-2.449-1.611-4.043c0-1.654,0.534-3.027,1.602-4.143
				c1.064-1.111,2.38-1.666,3.948-1.666c1.649,0,2.994,0.535,4.03,1.609c1.035,1.074,1.553,2.459,1.553,4.158
				C147.877,108.213,147.346,109.574,146.284,110.668z M123.994,152.469c0,1.152-0.938,2.09-2.089,2.09h-11.55
				c-1.152,0-2.087-0.938-2.087-2.09s0.935-2.09,2.087-2.09c0.029,0,3.535,0,3.535,0v-17.768h-3.535v-0.018
				c-1.152,0-2.087-0.938-2.087-2.09s0.935-2.09,2.087-2.09h5.99c1.155,0,2.089,0.938,2.089,2.09c0,0.031-0.007,0.059-0.007,0.092
				l0.007,0.006v19.777c0,0,3.443,0,3.471,0C123.056,150.379,123.994,151.316,123.994,152.469z M89.361,140.678
				c-1.109,1.16-1.667,2.684-1.667,4.207c0,1.521,0.558,3.039,1.667,4.199c2.229,2.316,5.853,2.316,8.079,0
				c0.833-0.867,2.729-0.867,3.626,0c0.897,0.865,0.897,2.271,0,3.137c-2.096,2.025-4.851,3.041-7.601,3.041
				s-5.505-1.016-7.601-3.041c-4.189-4.043-4.189-10.631,0-14.68c4.192-4.043,11.009-4.043,15.201,0
				c0.897,0.873,0.897,2.273,0,3.137c-0.895,0.867-2.793,0.867-3.626,0C95.214,138.361,91.591,138.361,89.361,140.678z
				 M89.296,102.328c-1.1,1.16-1.654,2.682-1.654,4.205c0,1.518,0.555,3.041,1.654,4.199c2.206,2.318,5.79,2.318,7.994,0
				c0.827-0.865,2.701-0.865,3.594,0c0.886,0.865,0.886,2.271,0,3.137c-2.076,2.025-4.801,3.035-7.526,3.035
				c-2.723,0-5.448-1.01-7.521-3.035c-4.149-4.049-4.149-10.629,0-14.678c4.147-4.043,10.898-4.043,15.048,0
				c0.886,0.865,0.886,2.27,0,3.137c-0.889,0.867-2.767,0.867-3.594,0C95.086,100.012,91.502,100.012,89.296,102.328z
				 M176.36,114.053c0.922-0.898,0.922-2.35,0-3.248c-0.917-0.898-2.609-0.898-3.462,0l0.003-0.006
				c-1.098,0.969-2.621,1.477-3.962,1.51c-0.049,0-0.683,0-0.732,0c-1.585,0-2.913-0.365-3.993-1.094
				c-1.082-0.729-1.745-1.764-2-3.008h12.952c1.445,0,2.621-1.199,2.621-2.682c0-0.066-0.014-0.131-0.02-0.189
				c0.006-0.02,0.02-0.031,0.02-0.045c-0.29-2.371-1.218-4.33-2.78-5.99c-1.918-2.045-4.331-3.064-7.246-3.064
				c-2.851,0-5.267,1.008-7.311,3.031c-2.044,2.025-3.066,4.486-3.066,7.389c0,2.963,0.984,5.41,2.958,7.344
				c1.975,1.941,4.483,2.904,7.523,2.904c0.007,0,0.014,0,0.026,0c0.208,0,0.957,0,0.976,0c2.722,0,5.443-0.971,7.559-2.916
				L176.36,114.053z"/>
		</g>
		<g>
			<path fill="#339933" d="M68.473,258.24c0-1.08,0.561-1.68,1.64-1.68h8.479c5.119,0,8.799,2.639,8.799,7.318
				c0,2.641-1.28,4.92-3.439,6.08v0.078c3.079,0.92,4.56,3.801,4.56,6.68c0,5.68-4.52,8.238-9.799,8.238h-8.599
				c-1.079,0-1.64-0.559-1.64-1.68V258.24z M78.631,268.158c2.24,0,3.479-1.6,3.479-3.639c0-2.041-1.199-3.52-3.6-3.52h-4.919v7.158
				H78.631z M79.111,280.516c2.64,0,4.119-1.719,4.119-4.119c0-2.359-1.52-4.078-4.119-4.078h-5.52v8.197H79.111z"/>
			<path fill="#339933" d="M93.431,258.24c0-1.08,0.56-1.68,1.64-1.68h7.679c2.8,0,4.199,0.24,5.399,0.76
				c2.88,1.199,4.759,3.92,4.759,7.758c0,3.359-1.76,6.561-4.719,7.76v0.08c0,0,0.359,0.439,0.92,1.479l4.679,8.559
				c0.68,1.16,0.16,2-1.159,2h-2.16c-0.92,0-1.52-0.359-1.96-1.16l-4.999-9.438H98.55v8.918c0,1.121-0.56,1.68-1.64,1.68h-1.84
				c-1.08,0-1.64-0.559-1.64-1.68V258.24z M103.189,269.879c2.759,0,4.479-1.721,4.479-4.52c0-1.801-0.68-3.24-2.239-3.879
				c-0.68-0.32-1.56-0.48-3.079-0.48h-3.8v8.879H103.189z"/>
			<path fill="#339933" d="M124.708,257.92c0.319-0.92,0.92-1.359,1.88-1.359h2.56c0.96,0,1.6,0.439,1.879,1.359l8.879,25.115
				c0.4,1.16-0.12,1.92-1.359,1.92h-1.84c-0.96,0-1.6-0.439-1.88-1.359l-2-5.918h-9.958l-1.96,5.879
				c-0.279,0.959-0.92,1.398-1.879,1.398h-1.84c-1.24,0-1.76-0.76-1.36-1.92L124.708,257.92z M131.547,273.477l-2.52-7.598
				c-0.48-1.6-1.12-4.398-1.12-4.398h-0.08c0,0-0.64,2.799-1.12,4.398l-2.559,7.598H131.547z"/>
			<path fill="#339933" d="M142.587,280.236l0.88-1.279c0.64-0.881,1.319-0.92,2.319-0.361c0.92,0.641,2.959,2.08,5.759,2.08
				c2.64,0,4.239-1.318,4.239-3.238c0-5.4-13.237-4.279-13.237-13.119c0-4.998,4.159-8.238,9.558-8.238
				c3.36,0,6.119,1.279,7.319,2.16c0.88,0.641,1,1.4,0.52,2.279l-0.72,1.32c-0.6,1.16-1.439,1-2.279,0.559
				c-1.16-0.68-2.72-1.559-4.919-1.559c-2.64,0-4.319,1.279-4.319,3.199c0,5.318,13.237,3.959,13.237,12.998
				c0,4.6-3.439,8.398-9.398,8.398c-4.039,0-7.318-1.799-8.719-2.879C142.187,281.996,141.787,281.316,142.587,280.236z"/>
			<path fill="#339933" d="M165.784,258.24c0-1.08,0.56-1.68,1.64-1.68h1.84c1.08,0,1.64,0.6,1.64,1.68v25.035
				c0,1.121-0.56,1.68-1.64,1.68h-1.84c-1.08,0-1.64-0.559-1.64-1.68V258.24z"/>
			<path fill="#339933" d="M177.463,258.24c0-1.08,0.561-1.68,1.64-1.68h1.84c1.08,0,1.64,0.6,1.64,1.68v22.275h10.599
				c1.119,0,1.68,0.561,1.68,1.641v1.119c0,1.121-0.561,1.68-1.68,1.68h-14.078c-1.079,0-1.64-0.559-1.64-1.68V258.24z"/>
		</g>
	</g>
</g>
<g id="Layer_2">
</g>
</svg>
